<?xml version="1.0" encoding="utf-8"?>
<!-- Generator: Adobe Illustrator 25.2.1, SVG Export Plug-In . SVG Version: 6.00 Build 0)  -->
<svg version="1.1" id="图层_1" xmlns="http://www.w3.org/2000/svg" xmlns:xlink="http://www.w3.org/1999/xlink" x="0px" y="0px"
	 viewBox="0 0 95 129" style="enable-background:new 0 0 95 129;" xml:space="preserve">
<style type="text/css">
	.st0{fill-rule:evenodd;clip-rule:evenodd;fill:#FF770F;}
	.st1{fill:#002EA6;}
</style>
<desc>Created with Pixso.</desc>
<g>
	<path class="st0" d="M5.5-3.5h83.6c2.8,0,5,2.2,5,5v126c0,2.8-2.2,5-5,5H5.5c-2.8,0-5-2.2-5-5V1.5C0.5-1.3,2.7-3.5,5.5-3.5z"/>
	<path class="st1" d="M41.5,16.3l-0.1,0.4h-8.1l0.7,0.8l-2.8,14.1H35l2.5-12.8h13.8l0.3-2.1h-6l0.2-1.3h-5.1L41.5,16.3z M56.7,18.7
		l-0.5,3.8h-2.6l-0.3,2.1h2.1l-3.1,3.9h4.3l0.4-0.4h2.7l-0.1,1.1h-6.8l-0.3,2.1h17.9l0.3-2.1h-6.8l0.1-1.1h2.7l0.2,0.4h4.3l-2-3.9
		h2.2l0.3-2.1h-2.6l0.5-3.8h2.1l0.3-2.1h-2.2l0.2-1.1h-4.7l0.7,0.8l0,0.2h-5.1l0.2-1.1h-4.7l0.7,0.8l0,0.2h-2.1l-0.3,2.1H56.7z
		 M16.1,15.5l0.5,0.6l-2.2,15.5h3.1l2.3-16.1H16.1z M24.6,16.8l0.5-1.3h-3.6l-2.2,6.1h3.4l1.1-2.7h6.7l0.3-2.1H24.6z M12.1,16.9
		l0.5,0.6l-1.8,13.2h3.1l1.9-13.8H12.1z M65.5,19.1h-5.1l0.1-0.4h5.1L65.5,19.1z M41.9,23.6l-1.1,8.1H45l1.1-8.1h4l0.3-2.1h-4
		l0.3-1.8h-4.3l-0.3,1.8h-4.4l-0.3,2.1H41.9z M28.5,22.1l-0.4-2.4h-3.6l0.4,2.4H28.5z M65.3,20.8h-5.1l0-0.4h5.1L65.3,20.8z
		 M65.1,22.5H60l0.1-0.4h5.1L65.1,22.5z M29.1,31.2l1.2-8.6H19.5l-1.2,8.6H29.1z M46.6,24.2l0.4,7h3l-0.4-7H46.6z M38.4,24.2l-2.6,7
		h3.1l2.5-7H38.4z M23.3,24.6l-0.7,4.7h-0.9l0.7-4.7H23.3z M25.3,29.3l0.6-4.7h0.9l-0.7,4.7H25.3z M64.2,25.9l0.1-0.8H60l-0.1,0.8
		h-1.3l1-1.3h5.1l0.7,1.3H64.2z M48,52.7l0.2,0.8h3.1l-1.7-6.9h-7l0.7,0.8l-3.2,6.1h3.1l0.4-0.7l-0.2,1.1h4.5L48,52.7z M20.2,47.7
		l0.4,0.7l-0.9,6.2h3.4l-0.8,5.8h-0.9l0.6-4.4h-2.8l-0.9,6.6h10.5l0.9-6.6h-2.6l-0.6,4.4h-1.1l0.8-5.8h3.3l1-6.8h-3.1l0.5,0.6
		l-0.6,4.2h-0.8l0.8-5.9h-3.8l0.5,0.9l-0.7,5h-0.8l0.7-4.9H20.2z M33.2,51.5h1.9l-1.6,11.3h3l1.6-11.3H40l0.3-2.1h-1.9l0.4-2.7h-3.6
		l0.5,0.7l-0.3,2h-1.9L33.2,51.5z M67.6,48.6l0.6,3H65l-0.4,2.1h3.5l0.2-1.6l0.3,1.3h3.3l-1.6-6.7h-7l0.7,0.8l-3.2,5.9h3.3l2.5-4.8
		H67.6z M54.7,50l-1.7,5.8H57l-0.7,4.9h-1.6l-1.4,2.2h4.3c0.4,0,0.8-0.1,1.1-0.4c0.3-0.3,0.5-0.6,0.6-1.1l1.1-7.7h-0.8l1.4-4.4
		l0.3-2.1h-6.8l-0.3,2.1h4l-1.4,4.4H56L57,50H54.7z M19.6,49.5l0.3-2.3h-7.3l-0.3,2.3h1.4L11,56.7h1.1l-0.8,5.7h6.5l1.4-10.1h-3.1
		l1.1-2.8H19.6z M47.8,51.8H44l1.6-3.3h1.5L47.8,51.8z M33.3,52.3L31.6,62H33l1.8-9.7H33.3z M38.4,52.3l-0.8,8.5H39l0.8-8.5H38.4z
		 M48.9,60.4l2-5.9h-2.6l-2,5.9h-7.1l-0.3,2.1h11.2l0.3-2.1H48.9z M43,59.9l0-5.3h-2.6l0,5.3H43z M46.1,59.8l0.3-5.3h-2.6l-0.2,5.3
		H46.1z M16.1,54.6l-0.8,5.7h-0.9l0.8-5.7H16.1z M69.7,60.4l2-5.7h-2.8l-2,5.7h-7l-0.3,2.1h11.1l0.3-2.1H69.7z M63.7,59.9l0-5.3
		h-2.8l0,5.3H63.7z M67,59.9l0.3-5.2h-2.8l-0.3,5.2H67z M56,59.1l0.3-2.2l-3.7,0.4l-0.3,2.2L56,59.1z M29.4,79.6l0.7-1.7h-4.3
		l-0.7,1.7h-1.3l-0.2-1.7h-4.3l0.2,1.7h-1.3l-0.2-1.7h-4.3l0.2,1.7h-1.3l-0.4,3H17l0.1-0.9h8.5l-0.1,0.9h4.7l0.4-3H29.4z M18.6,86.8
		l-0.1,0.9h-7.3l-0.3,2.1h7.3L17.8,92l-2,2.1h4.4c0.4,0,0.8-0.1,1.1-0.4c0.3-0.3,0.5-0.6,0.6-1.1l0.4-2.7h7.3l0.3-2.1h-7.3l5.8-1.9
		l0.4-2.5H13.9l-0.3,2.1h9.9L18.6,86.8z"/>
</g>
</svg>
