<?xml version="1.0" encoding="utf-8"?>
<!-- Generator: Adobe Illustrator 25.2.1, SVG Export Plug-In . SVG Version: 6.00 Build 0)  -->
<svg version="1.1" id="图层_1" xmlns="http://www.w3.org/2000/svg" xmlns:xlink="http://www.w3.org/1999/xlink" x="0px" y="0px"
	 viewBox="0 0 95 129" style="enable-background:new 0 0 95 129;" xml:space="preserve">
<style type="text/css">
	.st0{fill-rule:evenodd;clip-rule:evenodd;fill:#015467;}
	.st1{opacity:0.5;fill:#BCCF90;enable-background:new    ;}
</style>
<desc>Created with Pixso.</desc>
<g>
	<path class="st0" d="M3.9-4h87.3c2.9,0,5.2,2.3,5.2,5.2v131.6c0,2.9-2.3,5.2-5.2,5.2H3.9c-2.9,0-5.2-2.3-5.2-5.2V1.2
		C-1.3-1.7,1-4,3.9-4z"/>
	<path class="st1" d="M33.8,16.7l0.6,0.7l-1.9,5.5h4.5l0.6-1.8h3.2l-0.4,2.7h-6.7l-0.4,2.7H40l-0.4,3.1h-8l-0.4,2.7h19.6l0.4-2.7H44
		l0.4-3.1h5.8l0.4-2.7h-5.8l0.4-2.7h6.2l0.4-2.7h-6.2l0.4-2.7h-5.3l0.8,0.9l-0.3,1.8h-2.6l0.6-1.8H33.8z M29.8,17.1h-6.7l0.2-1.3
		h-5.9l0.7,0.9L18,17.1h-6.9l-0.4,3.1H12l-0.2,1.4H14l-2.9,1.9h5.4l2.8-1.9h1.1l2.4,1.9h5.3l-2.4-1.9h2.2l0.2-1.4h1.4L29.8,17.1z
		 M60.8,26.4l-0.4,3.2l-7.2,0.2l-0.3,2.5l14.9-0.4l0.1,0.8h4l-0.6-5h-4l0.2,1.7l-2.5,0.1l0.4-3h6.9l1.2-8.4h-6.9l0.3-2.2h-5.4
		l0.8,0.8L61.9,18h-7.2l-1.2,8.4H60.8z M21.8,19.7l0.8-0.6h-4.8l-0.8,0.6h-2.2l0.2-1.1h10.7l-0.2,1.1H21.8z M61.6,20.4L61.1,24h-2.8
		l0.5-3.6H61.6z M65.6,24l0.5-3.6h2.5L68.1,24H65.6z M29,26.1l0.3-2H10.2l-0.3,2h13.6l-0.6,4.3l-2.1,2.2h4.4c0.4,0,0.8-0.1,1.2-0.4
		c0.4-0.3,0.6-0.7,0.6-1.1l0.7-5H29z M21.6,31.3l0.6-4.4H11.5l-0.6,4.4H21.6z M15,28.4h3.2l-0.2,1.2h-3.2L15,28.4z M28.9,50.2
		l0.7-1.8h-4.5l-0.7,1.8h-1.3l-0.2-1.8h-4.5l0.2,1.8h-1.3l-0.2-1.8h-4.5l0.2,1.8h-1.4L11,53.3h4.9l0.1-0.9H25l-0.1,0.9h4.9l0.4-3.1
		H28.9z M48.3,54.7l0.2,0.8h3.3L50,48.4h-7.3l0.7,0.9L40,55.6h3.2l0.4-0.8l-0.2,1.1h4.7L48.3,54.7z M32.9,53.5h2l-1.7,11.8h3.2
		L38,53.5H40l0.3-2.2h-2l0.4-2.8h-3.8l0.5,0.7l-0.3,2.1h-2L32.9,53.5z M68.8,50.4l0.6,3.1h-3.3l-0.4,2.2h3.7l0.2-1.6l0.3,1.3h3.4
		l-1.7-7h-7.3l0.7,0.9l-3.3,6.1h3.4l2.6-5H68.8z M55.3,51.9l-1.8,6h4.2L57,63h-1.7l-1.5,2.2h4.5c0.4,0,0.8-0.1,1.2-0.4
		c0.4-0.3,0.6-0.7,0.6-1.1l1.1-8h-0.9l1.4-4.6l0.3-2.2H55L54.7,51h4.2l-1.5,4.6h-0.8l1.1-3.8H55.3z M48.1,53.8h-4l1.7-3.4h1.6
		L48.1,53.8z M17.6,57.7l-0.1,0.9H9.9l-0.3,2.2h7.6l-0.3,2.2l-2.1,2.2h4.6c0.5,0,0.9-0.1,1.2-0.4c0.3-0.3,0.6-0.7,0.6-1.1l0.4-2.9
		h7.6l0.3-2.2h-7.6l6.1-2l0.4-2.6H12.7l-0.3,2.2h10.3L17.6,57.7z M33,54.2l-1.8,10.2h1.5l1.8-10.2H33z M38.2,54.2l-0.9,8.8h1.5
		l0.8-8.8H38.2z M49.2,62.7l2.1-6.1h-2.7l-2.1,6.1h-7.4l-0.3,2.2h11.7l0.3-2.2H49.2z M43.1,62.2l0-5.6h-2.7l0,5.6H43.1z M46.3,62.1
		l0.3-5.6h-2.7l-0.3,5.6H46.3z M71,62.7l2.1-6h-2.9l-2.1,6h-7.3l-0.3,2.2h11.6l0.3-2.2H71z M64.7,62.2l0-5.5h-2.9l0,5.5H64.7z
		 M68.1,62.2l0.3-5.5h-2.9l-0.3,5.5H68.1z M56.7,61.3L57,59l-3.8,0.5l-0.3,2.3L56.7,61.3z"/>
</g>
</svg>
