<?xml version="1.0" encoding="utf-8"?>
<!-- Generator: Adobe Illustrator 25.2.1, SVG Export Plug-In . SVG Version: 6.00 Build 0)  -->
<svg version="1.1" id="图层_1" xmlns="http://www.w3.org/2000/svg" xmlns:xlink="http://www.w3.org/1999/xlink" x="0px" y="0px"
	 viewBox="0 0 556 557" style="enable-background:new 0 0 556 557;" xml:space="preserve">
<style type="text/css">
	.st0{clip-path:url(#SVGID_2_);}
	.st1{fill:url(#SVGID_3_);}
	.st2{fill:url(#SVGID_4_);}
	.st3{fill:url(#SVGID_5_);}
	.st4{fill:url(#SVGID_6_);}
	.st5{fill:url(#SVGID_7_);}
</style>
<g>
	<g>
		<defs>
			
				<rect id="SVGID_1_" x="-0.5" y="0.5" transform="matrix(3.463287e-03 -1 1 3.463287e-03 -1.4578 555.5339)" width="557" height="556"/>
		</defs>
		<clipPath id="SVGID_2_">
			<use xlink:href="#SVGID_1_"  style="overflow:visible;"/>
		</clipPath>
		<g class="st0">
			
				<linearGradient id="SVGID_3_" gradientUnits="userSpaceOnUse" x1="-419.6601" y1="-1.379" x2="-130.0601" y2="345.721" gradientTransform="matrix(-1 -3.463308e-03 3.463308e-03 -1 -16.2183 556.981)">
				<stop  offset="0" style="stop-color:#54C8FA"/>
				<stop  offset="1" style="stop-color:#A744F4"/>
			</linearGradient>
			<path class="st1" d="M16.2,495.1c85.6-15.5,171.3-30.9,256.9-46.4c88.4,16.1,176.7,32.1,265.1,48.2c12,2,21-10.9,15.1-20.9
				L288.9,8c-6-10-20-10.1-25-0.1L1.3,474C-4.7,484,4.2,497.1,16.2,495.1z"/>
		</g>
	</g>
</g>
<linearGradient id="SVGID_4_" gradientUnits="userSpaceOnUse" x1="406.5515" y1="1659.4907" x2="458.9458" y2="2018.9098" gradientTransform="matrix(1.2005 0.1043 -0.1908 1.0118 73.9598 -1578.0314)">
	<stop  offset="0" style="stop-color:#FFEA83"/>
	<stop  offset="8.333330e-02" style="stop-color:#FFDD35"/>
	<stop  offset="1" style="stop-color:#FFA800"/>
</linearGradient>
<path class="st2" d="M133.7,356.1c2,4.1,6.5,5.8,8.3,6.5c16.2,5.9,83.8,7.7,93.4,20.8c6.9,9.4-6,38.4-87.8,122.1
	c-7.8,7.6-38.9,38.5-34.9,46.8c1.4,2.9,3.7,4,3.7,4c3.1,1.2,7.5,0.9,10.7-1.8c75.8-64.4,151.6-128.8,227.4-193.3
	c3-4.4,3.4-10.1,0.9-14.7c-3.5-6.3-10.5-7.1-11.1-7.1c-3.1-0.4-55.1-7.1-76.4-12.5c-3.4-0.9-9.6-2.6-12.2-7.8
	c-2.6-5.1-0.4-11,0.4-13.2c9.2-25,104.4-128.2,112.9-141.5c1.1-1.7,4-6.3,2.6-10.6c0,0-1-3.1-4.7-5.3
	c-15.6-9.4-229.1,180.2-233.7,198.7C131.9,352.5,133.7,356.1,133.7,356.1z"/>
<linearGradient id="SVGID_5_" gradientUnits="userSpaceOnUse" x1="313.6434" y1="497.6944" x2="313.6434" y2="497.6944">
	<stop  offset="0" style="stop-color:#FFEA83"/>
	<stop  offset="8.333330e-02" style="stop-color:#FFDD35"/>
	<stop  offset="1" style="stop-color:#FFA800"/>
</linearGradient>
<path class="st3" d="M313.6,497.7"/>
<linearGradient id="SVGID_6_" gradientUnits="userSpaceOnUse" x1="399.5955" y1="1850.2559" x2="399.5955" y2="1850.2559" gradientTransform="matrix(1.234 0.4171 -0.4059 1.2008 429.6669 -2088.8606)">
	<stop  offset="0" style="stop-color:#FFEA83"/>
	<stop  offset="8.333330e-02" style="stop-color:#FFDD35"/>
	<stop  offset="1" style="stop-color:#FFA800"/>
</linearGradient>
<path class="st4" d="M171.7,299.6"/>
<linearGradient id="SVGID_7_" gradientUnits="userSpaceOnUse" x1="385.2656" y1="1835.0155" x2="385.2656" y2="1835.0155" gradientTransform="matrix(1.234 0.4171 -0.4059 1.2008 429.6669 -2088.8606)">
	<stop  offset="0" style="stop-color:#FFEA83"/>
	<stop  offset="8.333330e-02" style="stop-color:#FFDD35"/>
	<stop  offset="1" style="stop-color:#FFA800"/>
</linearGradient>
<path class="st5" d="M160.3,275.3"/>
</svg>
