<?xml version="1.0" encoding="utf-8"?>
<!-- Generator: Adobe Illustrator 25.2.1, SVG Export Plug-In . SVG Version: 6.00 Build 0)  -->
<svg version="1.1" id="图层_1" xmlns="http://www.w3.org/2000/svg" xmlns:xlink="http://www.w3.org/1999/xlink" x="0px" y="0px"
	 viewBox="0 0 95 129" style="enable-background:new 0 0 95 129;" xml:space="preserve">
<style type="text/css">
	.st0{fill-rule:evenodd;clip-rule:evenodd;fill:#F5D63B;}
	.st1{fill:#013E77;}
</style>
<desc>Created with Pixso.</desc>
<g>
	<path class="st0" d="M5.2-5h85.4c2.8,0,5.1,2.3,5.1,5.1v128.8c0,2.8-2.3,5.1-5.1,5.1H5.2c-2.8,0-5.1-2.3-5.1-5.1V0.1
		C0.1-2.7,2.3-5,5.2-5z"/>
	<path class="st1" d="M64.9,18.8h-9.5l-0.8,6.1h4l-5.3,5.6H58l4.8-5.6h0.7l-0.6,4.5l-0.1,1.1H72l0.5-3.4l-1,0.9H67l0.4-3H72l0.9-6.1
		H70l1.3-1.5l0.3-2.1H60.7l0.7-0.8h-4.3l0.4,0.5L55,18.3h3.4l0.8-1.1h7.1L64.9,18.8z M42,15.3l-0.1,0.4h-8.3l0.7,0.8l-2.9,14.4h3.9
		l2.6-13h14.1l0.3-2.2h-6.1l0.2-1.3h-5.2L42,15.3z M16,14.4l0.5,0.6l-2.2,15.9h3.2l2.3-16.5H16z M24.7,15.7l0.5-1.3h-3.7l-2.3,6.2
		h3.5l1.1-2.8h6.8l0.3-2.2H24.7z M11.9,15.9l0.5,0.6L10.6,30h3.1l2-14.1H11.9z M42.4,22.6l-1.2,8.3h4.4l1.2-8.3h4l0.3-2.2h-4
		l0.3-1.9h-4.4l-0.3,1.9h-4.5l-0.3,2.2H42.4z M28.7,21.2l-0.5-2.5h-3.6l0.5,2.5H28.7z M61.3,22.9h-2.4l0.3-2.1h2.4L61.3,22.9z
		 M65.7,22.9l0.3-2.1h2.4l-0.3,2.1H65.7z M29.3,30.5l1.2-8.7h-11l-1.2,8.7H29.3z M47.2,23.3l0.4,7.2h3.1l-0.5-7.2H47.2z M38.8,23.4
		l-2.6,7.1h3.1l2.6-7.1H38.8z M23.4,23.7l-0.7,4.8h-0.9l0.7-4.8H23.4z M25.5,28.5l0.7-4.8H27l-0.7,4.8H25.5z M50.7,48l0.7-1.7h-4.4
		L46.4,48h-1.3l-0.2-1.7h-4.4l0.2,1.7h-1.3l-0.2-1.7h-4.4L35,48h-1.3l-0.4,3.1h4.8l0.1-0.9h8.7l-0.1,0.9h4.8L52,48H50.7z M58,47
		l-2.3,8H67l-0.7,5.2h-3.9v0.1l-2,2.1h8.4c0.4,0,0.8-0.1,1.2-0.4c0.3-0.3,0.5-0.7,0.6-1.1l1.1-8h-11l0.6-2.2h11.6l0.3-2.2H61.9
		l0.6-2.2h-5.2L58,47z M21.1,47.2l0,0.3h-6.7l0.6,0.7l-0.7,3.6L14,50.1h-2.3l0.4,3.4H14l-0.2,1h-1.7l-1.7,5.2h2l1-2.8l-1.1,5.9h3.3
		l2.6-13.2h12.8l0.3-2.1h-5.4l0.2-1.1h-5.6L21.1,47.2z M24.7,51.8L24.3,55h5.1l0.3-2.5l-0.9,0.6H28l0.4-2.9h-9.8l-1,4.8h3.8l0.7-3.2
		H24.7z M39.7,55.4l-0.1,0.9h-7.4l-0.3,2.2h7.4l-0.3,2.2l-2,2.1h4.5c0.4,0,0.8-0.1,1.2-0.4c0.3-0.3,0.5-0.6,0.6-1.1l0.4-2.8H51
		l0.3-2.2h-7.4l5.9-2l0.4-2.6H34.9l-0.3,2.2h10.1L39.7,55.4z M17.1,58.5l2.9,1.8l-4.4,2.5h5l1.9-1l1.7,1h5l-4-2.5l3.3-1.8l0.5-3.2
		H17.5l-0.3,1.8h8l0,0.3l-2.5,1.4l-1.9-1.2h-3.7L17.1,58.5z M64.7,58.7l0.3-2.2H53.3L53,58.7H64.7z M27.5,84.4l0.2,0.8h3.2l-1.8-7
		h-7.2l0.7,0.8l-3.3,6.2h3.1l0.4-0.8l-0.2,1.1h4.6L27.5,84.4z M12.4,83.1h2l-1.6,11.5h3.1l1.6-11.5h1.9l0.3-2.2h-1.9l0.4-2.8h-3.7
		l0.5,0.7l-0.3,2.1h-2L12.4,83.1z M47.5,80.2l0.6,3.1h-3.2l-0.4,2.1h3.6l0.2-1.6l0.3,1.3h3.3l-1.7-6.8h-7.1l0.7,0.8l-3.2,6H44
		l2.5-4.9H47.5z M34.4,81.6l-1.8,5.9h4.2l-0.7,5h-1.6l-1.5,2.2h4.4c0.4,0,0.8-0.1,1.2-0.4c0.3-0.3,0.5-0.6,0.6-1.1l1.1-7.8h-0.9
		l1.4-4.5l0.3-2.2h-7l-0.3,2.2h4.1l-1.4,4.5h-0.8l1.1-3.7H34.4z M27.3,83.5h-3.9l1.7-3.3h1.5L27.3,83.5z M12.5,83.9l-1.8,10h1.4
		l1.8-10H12.5z M17.7,83.9l-0.9,8.7h1.5l0.8-8.7H17.7z M28.4,92.2l2-6h-2.6l-2,6h-7.3l-0.3,2.1h11.5l0.3-2.1H28.4z M22.4,91.6l0-5.5
		h-2.6l0,5.5H22.4z M25.6,91.6l0.3-5.4h-2.6L23,91.6H25.6z M49.7,92.1l2-5.8h-2.8l-2,5.8h-7.2l-0.3,2.1h11.4l0.3-2.1H49.7z
		 M43.5,91.7l0-5.4h-2.8l0,5.4H43.5z M46.9,91.7l0.3-5.3h-2.8l-0.3,5.3H46.9z M35.7,90.8l0.3-2.3L32.3,89L32,91.3L35.7,90.8z"/>
</g>
</svg>
