<?xml version="1.0" encoding="utf-8"?>
<!-- Generator: Adobe Illustrator 25.2.1, SVG Export Plug-In . SVG Version: 6.00 Build 0)  -->
<svg version="1.1" id="图层_1" xmlns="http://www.w3.org/2000/svg" xmlns:xlink="http://www.w3.org/1999/xlink" x="0px" y="0px"
	 viewBox="0 0 95 129" style="enable-background:new 0 0 95 129;" xml:space="preserve">
<style type="text/css">
	.st0{fill-rule:evenodd;clip-rule:evenodd;fill:#5B3663;}
	.st1{fill:#FFD800;}
</style>
<desc>Created with Pixso.</desc>
<g>
	<path class="st0" d="M5.1-4h86.1c2.8,0,5.1,2.3,5.1,5.1v129.7c0,2.8-2.3,5.1-5.1,5.1H5.1c-2.8,0-5.1-2.3-5.1-5.1V1.1
		C0-1.7,2.3-4,5.1-4z"/>
	<path class="st1" d="M42.2,16.4l-0.1,0.4h-8.3l0.7,0.8l-2.9,14.5h4L38.2,19h14.2l0.3-2.2h-6.2l0.2-1.3h-5.3L42.2,16.4z M55.9,16.4
		l0.6,0.7l-1.9,5.4H59l0.6-1.8h3.1l-0.4,2.6h-6.6l-0.4,2.6H62l-0.4,3.1h-7.9l-0.4,2.6h19.3l0.4-2.6h-7.1l0.4-3.1h5.7l0.4-2.6h-5.7
		l0.4-2.6h6.2l0.4-2.6h-6.1l0.4-2.6h-5.3l0.8,0.9l-0.3,1.8h-2.6l0.6-1.8H55.9z M16.1,15.5l0.6,0.6l-2.3,16h3.2L20,15.5H16.1z
		 M24.8,16.9l0.5-1.3h-3.7l-2.3,6.3h3.5l1.1-2.8h6.9l0.3-2.2H24.8z M12,17.1l0.6,0.6l-1.9,13.6h3.2l2-14.2H12z M42.6,23.8l-1.2,8.3
		h4.4l1.2-8.3h4.1l0.3-2.2h-4.1l0.3-1.9h-4.4l-0.3,1.9h-4.5l-0.3,2.2H42.6z M28.9,22.3l-0.5-2.5h-3.7l0.5,2.5H28.9z M29.5,31.8
		l1.2-8.8H19.6l-1.2,8.8H29.5z M47.5,24.5l0.4,7.2H51l-0.5-7.2H47.5z M39.1,24.6l-2.7,7.2h3.1l2.6-7.2H39.1z M23.5,24.9l-0.7,4.8
		h-0.9l0.7-4.8H23.5z M25.6,29.8l0.7-4.8h0.9l-0.7,4.8H25.6z M15.7,64.3l2-14l0.4-2.6l-6.3,0.9l-0.4,2.6l1.8-0.3l-1.9,13.4H15.7z
		 M24.9,55.1l5.1-1.8l0.4-3.1l-5.1,1.8l0.6-4.4h-5.3l0.7,0.9l-0.7,5.2l-2.7,1l-0.4,3.1l2.8-1l-1,7.1H29l0.5-3.5l-1,0.9h-4.4
		L24.9,55.1z M48.9,53.9l0.2,0.8h3.2l-1.8-7.1h-7.2l0.7,0.9l-3.3,6.3h3.2l0.4-0.8l-0.2,1.1h4.6L48.9,53.9z M33.7,52.7h2L34,64.3h3.1
		l1.6-11.6h1.9l0.3-2.2h-1.9l0.4-2.8h-3.7l0.5,0.7L36,50.5h-2L33.7,52.7z M69.1,49.7l0.6,3.1h-3.3L66,54.9h3.6l0.2-1.6l0.3,1.3h3.4
		l-1.7-6.9h-7.2l0.7,0.9l-3.3,6.1h3.4l2.5-4.9H69.1z M55.8,51.1L54,57h4.2l-0.7,5h-1.6l-1.5,2.2h4.5c0.4,0,0.8-0.1,1.2-0.4
		c0.3-0.3,0.5-0.7,0.6-1.1l1.1-7.9h-0.9l1.4-4.6l0.3-2.2h-7l-0.3,2.2h4.2l-1.5,4.6h-0.8l1.1-3.7H55.8z M48.7,53h-3.9l1.7-3.4h1.6
		L48.7,53z M33.8,53.4l-1.8,10h1.5l1.8-10H33.8z M39,53.4l-0.9,8.7h1.5l0.8-8.7H39z M49.8,61.8l2.1-6h-2.7l-2,6h-7.3l-0.3,2.2h11.6
		l0.3-2.2H49.8z M43.8,61.2l0-5.5h-2.7l0,5.5H43.8z M47,61.2l0.3-5.5h-2.7l-0.3,5.5H47z M71.3,61.7l2-5.9h-2.9l-2,5.9h-7.2l-0.3,2.2
		h11.5l0.3-2.2H71.3z M65.1,61.3l0-5.4h-2.9l0,5.4H65.1z M68.5,61.3l0.3-5.4h-2.9l-0.3,5.4H68.5z M57.2,60.4l0.3-2.3l-3.8,0.5
		l-0.3,2.3L57.2,60.4z"/>
</g>
</svg>
