<?xml version="1.0" encoding="UTF-8"?>
<!-- Generator: Adobe Illustrator 25.2.3, SVG Export Plug-In . SVG Version: 6.00 Build 0)  -->
<svg xmlns="http://www.w3.org/2000/svg" xmlns:xlink="http://www.w3.org/1999/xlink" version="1.1" id="Capa_1" x="0px" y="0px" viewBox="0 0 512 512" style="enable-background:new 0 0 512 512;" xml:space="preserve" width="512" height="512">
<g>
	<g>
		<g>
			<path style="fill-rule:evenodd;clip-rule:evenodd;fill:#B9D5E8;" d="M501.532,205.822c3.038,1.91,9.125,6.677,10.217,10.839     c1.059,4.013-1.459,9.212-3.367,13.325c-1.781,3.85-46.132,97.108-49.754,104.74c-5.837,12.322-11.307,25.863-15.133,36.304     c-6.3,17.156-13.714,35.944-20.353,53.997c-1.958,5.318-3.792,13.704-9.063,17.9c-4.714,3.744-12.961,1.824-19.52,0.499     c-7.383-1.498-14.089-3.451-20.245-5.4c-13.407-4.262-27.683-9.111-41.015-14.213c-8.148-3.125-14.717-6.135-20.931-8.597     c-13.455-5.338-26.936-10.647-41.421-16.863c-10.5-4.512-19.916-11.228-19.563-21.03c0.156-4.162,1.975-9.245,3.408-14.314     c1.38-4.848,2.621-9.917,4.171-14.42c3.447-10.032,7.877-19.873,11.972-29.219c12.845-29.358,24.284-59.004,37.355-88.256     c8.355-18.687,19.213-39.856,29.238-59.258c6.507-12.58,16.201-27.581,27.498-27.936c4.947-0.156,11.007,2.244,16.534,4.039     c16.527,5.352,34.141,14.501,50.937,23.152c18.26,9.394,33.769,15.917,51.393,24.831     C489.846,198.952,495.657,202.121,501.532,205.822z"/>
		</g>
		<g>
			<g>
				<g>
					<path style="fill-rule:evenodd;clip-rule:evenodd;fill:#1A4E72;" d="M486.944,237.651c0.245-0.571,0.485-1.152,0.723-1.733       c-3.746-1.963-7.721-3.696-11.451-5.588c-17.093-8.645-32.401-16.33-49.879-24.51c-10.637-4.968-21.56-9.668-33.013-15.077       c-4.716-2.232-9.404-4.426-16.506-7.541c-4.234-1.862-14.4-7.426-16.503-6.566c-2.129,0.864-4.961,5.976-4.114,8.021       c0.751,1.805,3.941,2.957,7.349,4.632c8.65,4.267,17.261,8.65,24.596,12.029c28.059,12.932,55.075,27.808,82.208,41.094       c3.54,1.733,7.887,4.167,11.379,5.66C483.577,244.65,485.425,241.233,486.944,237.651z"/>
				</g>
				<g>
					<path style="fill-rule:evenodd;clip-rule:evenodd;fill:#1A4E72;" d="M475.018,261.748c-4.654-2.827-10.008-5.045-14.924-7.531       c-17.094-8.65-32.401-16.335-49.881-24.51c-10.637-4.973-21.56-9.677-33.006-15.082c-4.716-2.232-9.408-4.426-16.503-7.541       c-4.236-1.867-14.413-7.426-16.51-6.566c-2.126,0.869-4.959,5.976-4.109,8.026c0.751,1.8,3.936,2.952,7.342,4.632       c8.65,4.262,17.264,8.645,24.601,12.024c28.064,12.937,55.07,27.808,82.203,41.09c5.268,2.578,12.315,6.706,15.68,6.994       C471.658,269.462,473.31,265.584,475.018,261.748z"/>
				</g>
				<g>
					<path style="fill-rule:evenodd;clip-rule:evenodd;fill:#1A4E72;" d="M463.445,286.335c-2.834-1.378-5.724-2.688-8.477-4.085       c-17.091-8.645-32.406-16.33-49.881-24.51c-10.632-4.968-21.558-9.663-33.011-15.082c-4.716-2.222-9.403-4.421-16.496-7.541       c-4.246-1.853-14.408-7.416-16.517-6.557c-2.124,0.869-4.956,5.981-4.102,8.026c0.746,1.805,3.936,2.952,7.339,4.623       c8.648,4.272,17.266,8.65,24.599,12.029c28.059,12.937,55.075,27.808,82.208,41.094c2.412,1.176,5.191,2.688,7.822,3.989       C459.154,294.356,461.331,290.362,463.445,286.335z"/>
				</g>
				<g>
					<path style="fill-rule:evenodd;clip-rule:evenodd;fill:#1A4E72;" d="M449.515,311.305c-3.509-1.795-7.195-3.418-10.673-5.175       c-17.081-8.645-32.394-16.325-49.876-24.5c-10.632-4.973-21.56-9.677-33.008-15.082c-4.721-2.232-9.404-4.426-16.498-7.546       c-4.243-1.858-14.413-7.426-16.515-6.562c-2.136,0.864-4.961,5.976-4.109,8.021c0.746,1.795,3.943,2.952,7.349,4.632       c8.65,4.258,17.257,8.64,24.603,12.024c28.052,12.932,55.068,27.808,82.196,41.094c2.995,1.464,6.562,3.418,9.701,4.906       C444.95,319.178,447.235,315.246,449.515,311.305z"/>
				</g>
				<g>
					<path style="fill-rule:evenodd;clip-rule:evenodd;fill:#1A4E72;" d="M439.485,336.713c0.249-0.571,0.482-1.147,0.732-1.733       c-3.746-1.954-7.721-3.696-11.46-5.587c-17.089-8.645-32.396-16.33-49.874-24.505c-10.632-4.973-21.563-9.668-33.013-15.082       c-4.716-2.223-9.404-4.421-16.501-7.551c-4.239-1.858-14.405-7.411-16.513-6.557c-2.121,0.869-4.961,5.981-4.109,8.031       c0.754,1.8,3.946,2.947,7.347,4.622c8.648,4.268,17.262,8.641,24.603,12.025c28.062,12.932,55.077,27.812,82.203,41.094       c3.54,1.733,7.887,4.167,11.379,5.669C436.12,343.711,437.968,340.289,439.485,336.713z"/>
				</g>
			</g>
			<g>
				<g>
					<g>
						<path style="fill-rule:evenodd;clip-rule:evenodd;fill:#FFFFFF;" d="M369.388,156.762c1.683-1.385,3.859-2.266,5.83-2.249        c2.7,0.022,11.71,2.436,9.828,6.259C383.297,164.329,369.748,161.467,369.388,156.762z"/>
					</g>
					<g>
						<path style="fill-rule:evenodd;clip-rule:evenodd;fill:#FFFFFF;" d="M361.163,159.11c-2.292,2.458-6.655,5.373-8.806,3.784        C347.269,159.117,361.434,152.608,361.163,159.11z"/>
					</g>
					<g>
						<path style="fill-rule:evenodd;clip-rule:evenodd;fill:#FFFFFF;" d="M371.846,167.387c-0.372,0.595-0.542,1.157-0.283,1.651        c-2.367,2.035-5.026,2.174-8.031,0.173c-0.002-0.629,0.173-1.277-0.015-1.872C365.862,165.274,369.523,164.07,371.846,167.387        z"/>
					</g>
				</g>
				<g>
					<g>
						<path style="fill-rule:evenodd;clip-rule:evenodd;fill:#FFFFFF;" d="M500.27,215.729c-2.383,8.4-16.911-2.227-14.357-6.663        C488.524,204.521,498.93,210.982,500.27,215.729z"/>
					</g>
					<g>
						<path style="fill-rule:evenodd;clip-rule:evenodd;fill:#FFFFFF;" d="M471.718,198.684c4.4,2.549,7.495,3.965,5.566,7.277        c-3.015,5.194-22.165-4.109-19.246-9.6C460.38,191.944,467.614,196.317,471.718,198.684z"/>
					</g>
					<g>
						<path style="fill-rule:evenodd;clip-rule:evenodd;fill:#FFFFFF;" d="M501.258,229.275c0.547,3.975-3.946,8.348-6.862,5.876        C491.01,232.266,497.322,223.827,501.258,229.275z"/>
					</g>
				</g>
				<g>
					<g>
						<path style="fill-rule:evenodd;clip-rule:evenodd;fill:#FFFFFF;" d="M403.685,432.654c-3.663,5.664,13.712,7.699,11.484,1.435        C414.015,430.82,406.748,431.478,403.685,432.654z"/>
					</g>
					<g>
						<path style="fill-rule:evenodd;clip-rule:evenodd;fill:#FFFFFF;" d="M393.159,437.924c1.38-0.379,3.991-1.91,3.017-4.618        c-1.274-3.528-8.686-4.915-11.523-6.014c-3.442-1.339-9.331-5.419-12.572-2.799c-4.613,3.754,5.095,8.41,8.499,9.874        c1.812,0.778,3.662,1.358,5.223,1.939C388.478,437.305,390.509,438.654,393.159,437.924z"/>
					</g>
				</g>
			</g>
			<g>
				<path style="fill-rule:evenodd;clip-rule:evenodd;fill:#1A4E72;" d="M382.065,375.498c5.11,0.629,11.189-4.618,15.149-0.672      c4.099,4.08-2.177,10.675-3.185,16.292c5.578,0.36,11.647-2.208,15.915,2.141c4.587,4.68,2.426,18.999-0.552,24.346      c-1.373-3.946-1.62-6.187-1.975-10.191c-0.221-2.405,0.655-8.194-1.27-10.205c-4.162-4.33-11.921,2.357-15.898-1.426      c-3.85-3.658,0.333-10.551,2.134-15.922c-4.618-2.266-12.178,5.885-16.517,2.813c-3.893-2.755-1.099-6.869,1.174-11.305      c-8.355,2.933-21.337,19.979-28.621,13.988c-4.472-3.667-1.075-9.265,1.114-14.127c-6.691,4.56-20.979,22.57-26.55,12.538      c-3.291-5.924,3.914-18.764,11.417-27.745c4.503-5.381,12.161-13.901,16.702-10.921c5.287,3.456,1.519,9.288-0.065,13.757      c5.607-1.474,11.004-13.642,16.656-13.042c5.94,3.677,0.862,9.269-1.819,14.146c-2.722,4.944-5.007,9.562-6.435,12.476      c5.597-1.498,20.134-16.436,26.152-14.305C393.13,360.814,386.587,369.978,382.065,375.498z M331.992,375.829      c4.063-2.347,8.076-7.248,12.142-9.773c-0.938-3.509,1.584-7.085,1.896-10.628C340.479,362.25,334.868,369.071,331.992,375.829z      "/>
			</g>
		</g>
	</g>
	<g>
		<g>
			<g>
				<path style="fill-rule:evenodd;clip-rule:evenodd;fill:#B9D5E8;" d="M197.76,330.938c6.931-2.736,21.637-5.016,26.744-2.482      c2.667,1.325,4.899,4.839,6.123,8.842c1.159,3.763,1.764,7.901,2.496,12.936c2.402,16.465,5.386,33.645,6.612,50.124      c0.542,7.267,0.967,16.397-0.965,22.402c-2.184,6.802-10.056,14.055-20.684,12.159c-3.504-0.629-8.033-2.736-11.016-6.615      c-4.085-5.304-6.595-16.086-8.021-23.818c-1.45-7.848-2.882-15.841-4.099-25.547c-1.207-9.615-2.623-18.217-3.468-25.163      C190.392,344.796,189.165,334.327,197.76,330.938z"/>
			</g>
			<g>
				<path style="fill-rule:evenodd;clip-rule:evenodd;fill:#E24E6A;" d="M209.312,410.707c3.396-2.031,7.647-1.877,11.223-2.208      c3.672-0.346,7.522-1.325,10.414,0.298c-0.708,5.035-2.904,9.49-4.666,14.712c-0.47,1.392-0.775,4.186-2.033,4.603      c-2.062,0.682-6.238-5.333-7.74-7.075c-1.198-1.387-2.479-2.794-3.629-4.037C211.086,415.047,209.06,413.343,209.312,410.707z"/>
			</g>
		</g>
		<g>
			<g>
				<path style="fill-rule:evenodd;clip-rule:evenodd;fill:#14334F;" d="M83.526,65.295c7.652-2.362,17.595-3.687,25.686-4.67      c23.871-2.897,48.592-5.7,73.536-9.396c15.987-2.374,33.246-5.134,50.14-7.702c15.985-2.431,34.484-6.528,42.22,4.709      c4.121,5.986,5.662,16.114,7.491,25.019c1.836,8.926,2.633,16.191,4.359,25.496c5.033,27.193,8.107,49.679,12.168,76.134      c3.759,24.481,8.124,52.197,9.896,74.508c1.296,16.258,2.208,31.988-1.356,44.954c-3.545,12.893-10.445,24.178-18.197,34.292      c-4.07,5.309-8.369,9.869-13.375,14.501c-2.525,2.333-4.776,4.714-7.635,6.653c-8.338,5.683-19.21,11.434-30.822,15.073      c-29.948,9.389-57.583,7.603-79.412,0.499c-3.166-1.022-5.763-2.592-8.818-4.152c-5.796-2.957-11.194-5.899-16.657-9.888      c-10.474-7.652-20.869-16.7-27.819-28.643c-6.968-11.967-11.456-30.083-14.938-48.712c-3.461-18.49-5.254-33.385-7.188-50.248      c-3.72-32.526-8.837-66.047-12.037-98.621c-0.732-7.464-1.934-16.052-2.453-24.315c-0.497-7.86-1.234-16.39,0.393-22.544      C70.916,69.884,76.208,67.558,83.526,65.295z"/>
			</g>
			<g>
				<g>
					<g>
						<path style="fill-rule:evenodd;clip-rule:evenodd;fill:#FFFFFF;" d="M210.884,352.933c-2.75,8.05,19.088,5.237,14.461-1.743        C222.937,347.556,214.268,350.571,210.884,352.933z"/>
					</g>
					<g>
						<path style="fill-rule:evenodd;clip-rule:evenodd;fill:#FFFFFF;" d="M199.635,362.581c1.562-0.883,4.289-3.552,2.278-6.548        c-2.628-3.936-12.111-3.365-15.901-3.845c-4.622-0.591-13.052-3.783-16.205,0.413c-4.493,5.981,8.777,8.717,13.383,9.466        c2.443,0.398,4.879,0.542,6.967,0.782C193.728,363.243,196.623,364.285,199.635,362.581z"/>
					</g>
				</g>
				<g>
					<g>
						<path style="fill-rule:evenodd;clip-rule:evenodd;fill:#FFFFFF;" d="M105.494,291.111c3.518,2.429,6.442,9.034,8.921,15.697        c1.068,2.846,2.717,7.488,0.271,8.727c-2.933,1.483-5.635-3.485-6.593-5.266c-3.046-5.645-5.575-13.08-5.765-17.429        C102.719,291.903,104.33,291.092,105.494,291.111z"/>
					</g>
					<g>
						<path style="fill-rule:evenodd;clip-rule:evenodd;fill:#FFFFFF;" d="M128.832,313.931c5.448-4.234,12.581,9.072,7.263,11.203        c-2.307,0.922-8.16-4.219-8.753-7.915C127.135,315.904,127.886,314.675,128.832,313.931z"/>
					</g>
					<g>
						<path style="fill-rule:evenodd;clip-rule:evenodd;fill:#FFFFFF;" d="M130.678,332.124c1.764-1.695,5.021-0.278,7.536,2.222        c2.021,2.021,4.968,6.802,2.038,8.271c-1.301,0.658-4.063-0.13-6.204-2.165C131.527,338.081,128.4,334.308,130.678,332.124z"/>
					</g>
				</g>
			</g>
		</g>
		<g>
			<g>
				<path style="fill-rule:evenodd;clip-rule:evenodd;fill:#FFFFFF;" d="M92.075,83.31c6.353-2.282,15.301-3.634,22.431-4.719      c21.421-3.254,42.328-5.691,63.694-8.712c20.449-2.895,42.906-6.648,63.689-8.717c10.743-1.068,20.223-2.093,24.565,6.684      c2.611,5.287,3.658,12.072,4.961,18.858c1.212,6.291,2.827,13.213,3.996,19.345c1.291,6.778,1.891,12.802,2.794,18.826      c4.548,30.342,10.15,63.469,11.876,92.165c0.727,12.125,0.29,22.719-3.975,31.504c-4.083,8.391-11.564,15.394-19.801,21.687      c-16.234,12.399-41.126,21.063-66.091,23.881c-23.374,2.635-45.846,0.749-63.782-6.682c-9.773-4.046-17.569-8.117-24.047-16.004      c-6.262-7.632-10.337-19.249-13.044-33.731c-4.575-24.428-7.63-49.922-11.045-74.777c-2.599-18.892-4.104-35.64-5.784-54.644      c-0.437-4.927-0.953-12.008,0.437-16.601C84.308,87.179,87.848,84.832,92.075,83.31z"/>
			</g>
			<g>
				<g>
					<path style="fill-rule:evenodd;clip-rule:evenodd;fill:#B9D5E8;" d="M258.437,95.961c4.356,34.552,8.16,68.757,14.508,104.537       c-20.509,13.171-54.955,19.162-81.197,21.75c-27.49,2.707-53.762,3.235-75.418-2.064       c-4.649-35.747-8.638-71.094-11.864-105.965c12.972-4.836,25.835-9.42,39.611-13.345       C187.128,88.607,225.421,91.276,258.437,95.961z"/>
				</g>
				<g>
					<g>
						<g>
							<path style="fill-rule:evenodd;clip-rule:evenodd;fill:#FFFFFF;" d="M132.199,122.602c3.468,1.505,3.576,6.492,4.022,10.292         c0.859,7.347,1.63,14.876,1.282,22.582c-0.149,3.219-0.619,7.494-4.107,8.186c-3.629-2.301-4.03-7.614-4.755-11.731         c-1.783-10.104-1.313-21.968,1.836-28.119C130.663,123.171,131.242,122.765,132.199,122.602z"/>
						</g>
						<g>
							<path style="fill-rule:evenodd;clip-rule:evenodd;fill:#FFFFFF;" d="M137.381,170.358c3.379,4.214,3.943,12.466,4.459,19.023         c0.286,3.591,2.265,16.028-2.518,16.642c-4.107,0.533-5.297-10.22-5.916-16.676c-0.71-7.406-1.766-17.184,1.596-18.841         C135.975,170.036,136.723,170.535,137.381,170.358z"/>
						</g>
					</g>
					<g>
						<g>
							<path style="fill-rule:evenodd;clip-rule:evenodd;fill:#FFFFFF;" d="M150.944,121.008c2.798,2.031,2.431,6.427,2.7,9.804         c0.552,7.011,1.118,13.597,1.303,20.967c0.072,2.813,0.828,8.146-2.405,8.587c-4.315,0.6-4.848-13.16-5.242-17.23         c-0.689-7.116-1.075-15.812,1.155-20.746C148.642,121.534,149.727,121.229,150.944,121.008z"/>
						</g>
						<g>
							<path style="fill-rule:evenodd;clip-rule:evenodd;fill:#FFFFFF;" d="M157.208,120.339c1.822-1.171,9.094-1.423,13.673-1.598         c3.384-0.125,10.719-0.794,10.964,2.247c0.173,2.198-3.778,3.135-7.548,3.775c-4.512,0.766-17.967,2.122-18.836-1.601         C155.024,121.304,155.977,121.133,157.208,120.339z"/>
						</g>
						<g>
							<path style="fill-rule:evenodd;clip-rule:evenodd;fill:#FFFFFF;" d="M188.51,118.62c4.615-1.69,6.416,14.329,7.015,19.628         c0.845,7.491,2.187,17.682-2.163,18.169c-4.363,0.487-5.609-12.291-6.365-18.577         C186.485,133.568,184.329,120.152,188.51,118.62z"/>
						</g>
						<g>
							<path style="fill-rule:evenodd;clip-rule:evenodd;fill:#FFFFFF;" d="M157.705,202.903c-2.95-1.839-3.778-8.213-4.642-12.956         c-1.411-7.733-1.882-16.426-1.195-22.196c1.983-1.027,2.554-0.465,4.075,0.245c2.381,7.987,2.837,15.73,3.363,22.897         C159.608,195.088,161.274,200.585,157.705,202.903z"/>
						</g>
						<g>
							<path style="fill-rule:evenodd;clip-rule:evenodd;fill:#FFFFFF;" d="M195.641,162.701c3.963,6.322,4.877,14.996,5.33,24.443         c0.173,3.619,1.284,13.018-3.322,13.22c-3.982,0.173-5.652-11.04-6.187-17.818c-0.602-7.661-0.83-14.871,0.554-18.188         C192.598,162.961,193.658,162.412,195.641,162.701z"/>
						</g>
						<g>
							<path style="fill-rule:evenodd;clip-rule:evenodd;fill:#FFFFFF;" d="M164.555,201.3c0.643-0.346,5.672-1.541,8.751-2.054         c4.685-0.763,16.424-2.232,16.755,1.291c0.264,2.765-5.82,3.461-10.294,4.022c-4.404,0.552-8.873,0.619-11.393,1.061         c-2.621,0.466-5.153,2.074-6.152-0.562C161.317,202.653,163.062,202.106,164.555,201.3z"/>
						</g>
					</g>
					<g>
						<g>
							<path style="fill-rule:evenodd;clip-rule:evenodd;fill:#FFFFFF;" d="M241.351,112.75c-0.271,2.861-4.279,2.967-6.785,3.593         c-9.207,2.316-21.152,4.865-27.145,2.357c-1.044-3.938,6.538-4.572,11.554-5.522c3.674-0.689,8.175-1.236,12.063-1.623         C235.343,111.127,239.913,110.515,241.351,112.75z"/>
						</g>
						<g>
							<path style="fill-rule:evenodd;clip-rule:evenodd;fill:#FFFFFF;" d="M207.286,121.539c2.294,4.313,2.558,10.493,3.638,17.209         c0.653,4.104,4.032,14.456-0.799,15.44c-3.689,0.751-4.334-5.743-5.071-9.646c-1.426-7.543-2.494-18.041-0.809-22.292         C204.593,120.876,206.204,121.335,207.286,121.539z"/>
						</g>
						<g>
							<path style="fill-rule:evenodd;clip-rule:evenodd;fill:#FFFFFF;" d="M213.236,155.466c4.035-1.949,12.281-2.273,18.62-2.762         c3.895-0.3,15.185-2.892,15.821,0.706c0.562,3.187-7.431,4.45-12.022,5.23c-2.419,0.406-8.907,1.226-13.671,1.596         c-3.994,0.31-11.035,0.826-11.638-1.687C209.763,156.134,211.292,156.4,213.236,155.466z"/>
						</g>
						<g>
							<path style="fill-rule:evenodd;clip-rule:evenodd;fill:#FFFFFF;" d="M251.321,156.969c3.497,4.644,3.115,12.616,3.79,19.581         c0.295,3.053,0.734,6.85,1.176,10.162c0.374,2.813,1.718,7.724-2.58,7.829c-2.753-1.085-2.647-5.295-3.463-9.624         c-1.704-9.13-4.467-22.052-2.547-26.297C248.328,157.228,249.177,156.686,251.321,156.969z"/>
						</g>
						<g>
							<path style="fill-rule:evenodd;clip-rule:evenodd;fill:#FFFFFF;" d="M215.398,195.496c3.528-2.16,11.473-2.381,18.913-3.226         c4.62-0.528,15.217-2.122,15.324,2.021c0.096,3.749-14.477,5.011-18.375,5.515c-3.182,0.413-16.131,2.515-17.722-0.259         C212.077,196.984,213.877,196.428,215.398,195.496z"/>
						</g>
					</g>
				</g>
			</g>
			<g>
				<g>
					<path style="fill-rule:evenodd;clip-rule:evenodd;fill:#E24E6A;" d="M163.196,248.149c1.673,3.586,1.082,7.8,1.044,11.386       c-0.031,3.691,0.545,7.623-1.361,10.33c-4.939-1.219-9.142-3.859-14.156-6.149c-1.344-0.61-4.092-1.2-4.373-2.491       c-0.468-2.121,5.945-5.659,7.832-6.975c1.502-1.051,3.034-2.179,4.39-3.197C158.692,249.469,160.604,247.626,163.196,248.149z"/>
				</g>
				<g>
					<path style="fill-rule:evenodd;clip-rule:evenodd;fill:#E24E6A;" d="M236.31,238.607c-1.553,3.634-0.83,7.834-0.679,11.415       c0.158,3.687-0.295,7.637,1.704,10.277c4.892-1.378,9.01-4.157,13.945-6.605c1.322-0.653,4.046-1.335,4.294-2.63       c0.396-2.136-6.125-5.467-8.06-6.715c-1.536-1.003-3.103-2.079-4.49-3.058C240.854,239.778,238.886,238.002,236.31,238.607z"/>
				</g>
				<g>
					<path style="fill-rule:evenodd;clip-rule:evenodd;fill:#E24E6A;" d="M195.71,248.37c6.936-3.231,14.499,1.569,13.654,9.783       c-0.499,4.858-5.419,9.13-10.469,8.405c-2.602-0.375-6.17-2.736-7.522-5.539C188.743,255.575,191.659,250.257,195.71,248.37z"/>
				</g>
			</g>
		</g>
	</g>
	<g>
		<g>
			<g>
				<path style="fill-rule:evenodd;clip-rule:evenodd;fill:#B9D5E8;" d="M146.161,407.04c-6.305,2.463-12.298,5.256-18.697,7.637      c-1.327-4.91-3.811-9.797-6.053-15.015c-6.447-14.943-12.557-30.467-18.963-45.827c-16.673-39.933-33.735-80.965-50.834-121.416      c-6.158-14.564-12.737-30.088-19.227-45.558c-1.063-2.544-1.8-4.723-2.894-7.906c-0.943-2.731-2.299-5.981-1.841-8.688      c0.617-3.696,6.012-6.682,10.006-7.109c0.915-0.101,3.235-0.12,4.21,0.259c3.509,1.363,6.072,8.972,8.17,13.7      c11.415,25.762,21.14,50.695,32.128,76.64C103.766,304.782,125.148,356.821,146.161,407.04z"/>
			</g>
			<g>
				<path style="fill-rule:evenodd;clip-rule:evenodd;fill:#FFFFFF;" d="M43.854,172.388c2.688,0.845,5.081,7.843,6.692,11.635      c9.084,21.5,17.3,42.717,25.995,64.38c5.316,13.234,10.061,25.902,15.353,38.877c1.795,4.402,3.075,8.957,4.704,13.369      c3.235,8.765,7.306,17.156,10.647,25.508c1.762,4.402,3.449,8.727,5.201,12.874c3.329,7.877,6.003,14.794,9.159,23.027      c0.091,0.226-0.194,0.37,0,0.749c0.655,1.214,0.941,2.789,1.735,4.949c0.751,2.035,2.585,4.551,0.739,6.687      c-2.894-0.014-3.348-3.341-4.205-5.199c-1.325-2.861-2.787-5.098-3.967-8.42c-0.449-1.286-1.81-3.878-2.719-5.942      c-3.363-7.661-6.773-16.014-10.15-23.771c-2.004-4.604-4.287-9.994-6.439-15.106c-0.915-2.165-1.551-4.507-2.475-6.682      c-0.804-1.896-1.954-3.591-2.727-5.453c-0.919-2.218-1.594-4.527-2.474-6.687c-2.307-5.659-4.894-11.29-7.179-16.834      c-12.118-29.401-23.583-61.438-34.914-93.359c-1.555-4.363-4.563-10.479-3.718-14.357      C43.142,172.431,43.934,171.879,43.854,172.388z"/>
			</g>
			<g>
				<g>
					<path style="fill:#1A4E72;" d="M35.723,176.8c-0.254-0.624-0.989-0.927-1.603-0.667l-4.899,2.054       c0.091,0.259,0.182,0.519,0.271,0.768c0.192,0.557,0.365,1.08,0.542,1.579l5.035-2.122       C35.694,178.158,35.985,177.424,35.723,176.8z"/>
				</g>
				<g>
					<path style="fill:#1A4E72;" d="M40.9,189.112c-0.271-0.638-0.974-0.936-1.627-0.672l-5.292,2.218       c0.319,0.763,0.643,1.526,0.962,2.285l5.297-2.222C40.874,190.451,41.171,189.731,40.9,189.112z"/>
				</g>
				<g>
					<path style="fill:#1A4E72;" d="M46.079,201.41c-0.266-0.638-0.994-0.926-1.625-0.672l-5.287,2.227       c0.317,0.758,0.641,1.522,0.958,2.285l5.297-2.237C46.048,202.773,46.343,202.039,46.079,201.41z"/>
				</g>
				<g>
					<path style="fill:#1A4E72;" d="M51.254,213.703c-0.262-0.624-0.991-0.931-1.639-0.648l-5.254,2.208       c0.319,0.763,0.643,1.531,0.967,2.295l5.273-2.222C51.23,215.071,51.513,214.347,51.254,213.703z"/>
				</g>
				<g>
					<path style="fill:#1A4E72;" d="M56.436,226.016c-0.274-0.629-1.003-0.922-1.63-0.677l-5.249,2.218       c0.326,0.773,0.648,1.536,0.972,2.299l5.237-2.208C56.407,227.36,56.697,226.65,56.436,226.016z"/>
				</g>
				<g>
					<path style="fill:#1A4E72;" d="M61.601,238.319c-0.257-0.624-0.979-0.917-1.627-0.653l-5.223,2.203       c0.326,0.758,0.643,1.522,0.967,2.28l5.23-2.203C61.584,239.692,61.874,238.952,61.601,238.319z"/>
				</g>
				<g>
					<path style="fill:#1A4E72;" d="M66.773,250.636c-0.252-0.643-0.991-0.926-1.615-0.667l-5.223,2.198       c0.324,0.763,0.641,1.526,0.967,2.285l5.223-2.199C66.763,251.99,67.044,251.241,66.773,250.636z"/>
				</g>
				<g>
					<path style="fill:#1A4E72;" d="M72.135,262.944c-0.276-0.629-0.977-0.931-1.63-0.672l-5.372,2.256       c0.317,0.763,0.636,1.522,0.96,2.285l5.374-2.261C72.104,264.283,72.403,263.572,72.135,262.944z"/>
				</g>
				<g>
					<path style="fill:#1A4E72;" d="M77.305,275.246c-0.259-0.638-0.989-0.931-1.62-0.672l-5.388,2.266       c0.317,0.763,0.634,1.526,0.958,2.28l5.402-2.275C77.283,276.605,77.576,275.87,77.305,275.246z"/>
				</g>
				<g>
					<path style="fill:#1A4E72;" d="M82.489,287.54c-0.266-0.634-0.994-0.931-1.639-0.653l-5.4,2.271       c0.317,0.763,0.639,1.531,0.96,2.294l5.422-2.28C82.46,288.913,82.745,288.183,82.489,287.54z"/>
				</g>
				<g>
					<path style="fill:#1A4E72;" d="M87.666,299.852c-0.269-0.634-1.001-0.922-1.63-0.672l-5.436,2.299       c0.317,0.758,0.634,1.526,0.958,2.299l5.441-2.295C87.635,301.201,87.925,300.481,87.666,299.852z"/>
				</g>
				<g>
					<path style="fill:#1A4E72;" d="M92.828,312.15c-0.254-0.624-0.974-0.922-1.623-0.648l-5.465,2.299       c0.321,0.763,0.639,1.526,0.958,2.285l5.479-2.309C92.814,313.528,93.109,312.794,92.828,312.15z"/>
				</g>
				<g>
					<path style="fill:#1A4E72;" d="M98.001,324.468c-0.25-0.643-0.987-0.922-1.611-0.667l-5.508,2.323       c0.321,0.763,0.636,1.526,0.958,2.29l5.513-2.318C97.996,325.826,98.279,325.077,98.001,324.468z"/>
				</g>
				<g>
					<path style="fill:#1A4E72;" d="M103.216,336.775c-0.269-0.629-0.972-0.931-1.625-0.667l-5.568,2.338       c0.317,0.758,0.636,1.522,0.955,2.285l5.573-2.342C103.187,338.124,103.487,337.404,103.216,336.775z"/>
				</g>
				<g>
					<path style="fill:#1A4E72;" d="M108.39,349.083c-0.264-0.643-0.987-0.936-1.62-0.677l-5.606,2.357       c0.317,0.763,0.638,1.526,0.958,2.285l5.619-2.367C108.366,350.441,108.654,349.707,108.39,349.083z"/>
				</g>
				<g>
					<path style="fill:#1A4E72;" d="M113.568,361.376c-0.259-0.629-0.991-0.936-1.632-0.653l-5.669,2.376       c0.317,0.768,0.638,1.536,0.95,2.299l5.7-2.396C113.543,362.744,113.832,362.014,113.568,361.376z"/>
				</g>
				<g>
					<path style="fill:#1A4E72;" d="M118.747,373.684c-0.266-0.629-1.001-0.917-1.625-0.672l-5.794,2.448       c0.31,0.768,0.626,1.536,0.939,2.304l5.813-2.448C118.716,375.028,119.013,374.317,118.747,373.684z"/>
				</g>
				<g>
					<path style="fill:#1A4E72;" d="M123.917,385.987c-0.259-0.624-0.982-0.922-1.625-0.653l-5.887,2.477       c0.319,0.768,0.638,1.522,0.962,2.29l5.899-2.486C123.902,387.359,124.193,386.62,123.917,385.987z"/>
				</g>
				<g>
					<path style="fill:#1A4E72;" d="M129.084,398.299c-0.245-0.638-0.989-0.917-1.61-0.663l-5.871,2.472       c0.331,0.763,0.665,1.522,1.003,2.266l5.832-2.443C129.079,399.657,129.36,398.914,129.084,398.299z"/>
				</g>
			</g>
		</g>
		<g>
			<g>
				<g>
					<path style="fill:#E24E6A;" d="M17.554,151.653c-0.866-1.853-0.067-4.061,1.774-4.927l9.068-4.253       c1.853-0.866,4.047-0.072,4.925,1.778l6.444,13.693c0.859,1.85,0.072,4.063-1.788,4.922l-9.065,4.258       c-1.85,0.873-4.051,0.077-4.92-1.762L17.554,151.653z"/>
				</g>
				<g>
					<path style="fill:#E24E6A;" d="M16.618,136.936c-0.149-0.991,0.365-1.999,1.306-2.455l2.333-1.085       c0.97-0.456,2.114-0.173,2.774,0.624c0.13,0.144,6.01,8.276,6.01,8.276c0.552,1.162,0.055,2.561-1.109,3.087l-5.674,2.669       c-1.159,0.542-2.542,0.046-3.091-1.111C19.167,146.939,16.652,137.147,16.618,136.936"/>
				</g>
			</g>
			<g>
				<g>
					<path style="fill:#1A4E72;" d="M18.517,134.962l1.747-0.83L0.615,93.815H0.61c-0.096-0.142-0.269-0.209-0.422-0.137       c-0.165,0.072-0.221,0.247-0.168,0.41l-0.015,0.005L18.517,134.962z"/>
				</g>
				<g>
					<path style="fill:#1A4E72;" d="M17.274,134.795c-0.19-0.415-0.019-0.895,0.398-1.094l2.146-1.006       c0.42-0.194,0.9-0.027,1.083,0.389c0.206,0.413,0.029,0.895-0.372,1.08l-2.167,1.037       C17.955,135.378,17.463,135.21,17.274,134.795"/>
				</g>
			</g>
			<g>
				<path style="fill:#E24E6A;" d="M21.222,170.199c-0.494-1.032-0.041-2.265,0.994-2.746l20.487-9.626      c1.037-0.48,2.278-0.053,2.758,0.987c0.48,1.032,0.048,2.251-0.998,2.755l-20.499,9.623      C22.938,171.687,21.711,171.246,21.222,170.199"/>
			</g>
		</g>
		<g>
			<g>
				<path style="fill-rule:evenodd;clip-rule:evenodd;fill:#E24E6A;" d="M150.639,411.519c4.02,0.418,8.091-0.797,10.801,1.31      c2.045,1.598,3.178,4.901,4.478,7.642c3.711,7.829,7.796,17.996,10.27,26.07c1.486-0.576,4.484-1.387,6.06-0.259      c3.146,5.059-6.065,7.594-10.539,9.48c-10.532,4.445-21.682,9.303-32.658,13.7c-3.024,1.205-9.094,3.586-9.742-0.533      c-0.562-3.533,3.864-4.263,4.999-5.266c-1.766-4.138-3.794-9.639-6.055-15.274c-2.076-5.184-4.719-10.916-5.266-15.807      c-0.629-5.626,1.437-7.805,4.21-10.532c-2.146,0.696-4.263,1.8-6.845,2.635c-2.244,0.725-5.307,1.92-7.635,1.579      c-1.423-0.206-3.048-1.43-3.164-2.635c-0.293-3.038,6.727-5.751,10.539-7.637c7.702-3.811,16.693-8.434,24.755-11.592      c4.666-1.819,10.452-3.586,13.961-4.214c2.566-0.451,4.267,0.418,4.478,1.584c0.48,2.722-3.773,4.656-5.537,5.799      C155.142,409.253,153.325,410.635,150.639,411.519z"/>
			</g>
			<g>
				<g>
					<g>
						<path style="fill-rule:evenodd;clip-rule:evenodd;fill:#FFFFFF;" d="M130.553,440.363c-2.952-0.643-1.068,6.951,1.205,5.031        C132.946,444.395,131.527,441.457,130.553,440.363z"/>
					</g>
					<g>
						<path style="fill-rule:evenodd;clip-rule:evenodd;fill:#FFFFFF;" d="M126.686,436.777c0.379,0.519,1.431,1.373,2.41,0.538        c1.275-1.09,0.689-4.407,0.701-5.77c0.024-1.656,0.804-4.757-0.809-5.698c-2.295-1.344-2.715,3.446-2.791,5.107        c-0.038,0.883,0.002,1.743,0.007,2.491C126.209,434.723,125.957,435.784,126.686,436.777z"/>
					</g>
				</g>
				<g>
					<g>
						<path style="fill-rule:evenodd;clip-rule:evenodd;fill:#FFFFFF;" d="M169.751,438.894c-0.797,1.69-0.468,4.824,0.046,7.886        c0.23,1.31,0.617,3.423,1.812,3.351c1.43-0.072,1.373-2.544,1.339-3.432c-0.077-2.794-0.744-6.154-1.625-7.843        C170.973,438.587,170.193,438.645,169.751,438.894z"/>
					</g>
					<g>
						<path style="fill-rule:evenodd;clip-rule:evenodd;fill:#FFFFFF;" d="M166.811,447.093c-2.983-0.408-2.77,6.178-0.295,5.818        c1.078-0.149,2.165-3.375,1.582-4.901C167.886,447.467,167.334,447.165,166.811,447.093z"/>
					</g>
				</g>
			</g>
		</g>
	</g>
	<g>
		<g>
			<g>
				<path style="fill-rule:evenodd;clip-rule:evenodd;fill:#F6BD4A;" d="M315.504,115.359c17.612,1.121,33.94,3.854,49.365,7.711      c-0.199,3.115-0.605,5.602-0.922,8.321c-0.293,2.52-1.044,5.671-0.077,8.751c1.387,4.431,9.154,5.993,11.933,9.531      c1.603,2.038,3.058,4.973,3.185,9.449c0.062,2.367-0.485,4.871-0.754,7.506c-0.703,6.989-2.05,14.588-3.113,21.812      c-3.547,24.059-7.303,47.987-12.166,71.072c-1.032,4.896-1.745,9.682-3.564,13.114c-1.579,2.986-5.251,6.797-7.843,8.045      c-5.746,2.746-14.307,1.56-20.302,0.951c-7.421-0.758-12.778-1.968-18.591-2.688c-5.823-0.715-12.233-1.709-18.385-3.235      c-5.487-1.363-11.96-3.331-15.096-7.047c-5.343-6.331-4.493-15.538-3.605-25.042c0.468-5.021,1.258-10.109,1.814-14.516      c3.031-23.962,6.84-47.599,10.832-71.183c0.367-2.213,0.905-4.575,1.356-6.778c1.265-6.218,3.082-11.775,8.451-14.465      c3.996-1.999,9.567-1.51,12.264-4.025C313.716,129.445,313.291,121.15,315.504,115.359z"/>
			</g>
			<g>
				<g>
					<path style="fill-rule:evenodd;clip-rule:evenodd;fill:#1A4E72;" d="M290.816,176.435c-0.804-5.218,1.61-13.863,5.835-14.166       c3.403-0.254,6.785,0.678,10.208,1.235c19.098,3.135,38.125,6.591,56.297,12.764c2.986,1.017,6.742,2.338,7.39,4.474       c0.535,1.766-0.134,5.021-0.547,6.951c-1.392,6.571-6.869,5.736-13.546,4.44c-9.389-1.834-19.316-4.738-28.542-6.346       c-9.936-1.728-19.431-3.288-29.231-5.458C295.804,179.694,292.641,178.941,290.816,176.435z"/>
				</g>
				<g>
					<g>
						<path style="fill:#1A4E72;" d="M293.243,212.211c14.36,2.376,27.793,5.184,41.951,7.747c3.732,0.672,8.674,1.238,13.436,1.67        c1.644,0.149,7.479,1.661,7.827-1.147c0.149-1.214-1.757-2.453-3.264-3.077c-2.513-1.046-2.184-0.581-4.651-1.33        c-15.509-4.719-32.32-8.151-48.412-11.007c-6.144-1.08-12.694-2.477-19.093-2.448c-0.343,2.294-0.677,4.584-1.001,6.879        c1.032,0.274,2.047,0.494,2.911,0.682C286.813,211.025,290.365,211.731,293.243,212.211z"/>
					</g>
					<g>
						<path style="fill:#1A4E72;" d="M308.507,230.106c3.447,0.523,11.432,2.059,11.487-1.555c0.036-2.799-5.691-3.922-9.288-4.786        c-7.69-1.853-16.097-3.111-23.271-4.282c-2.235-0.365-5.648-1.306-8.58-1.526c-0.257,1.886-0.509,3.773-0.756,5.659        c0.091,0.019,0.175,0.043,0.266,0.067C288.356,226.429,297.796,228.488,308.507,230.106z"/>
					</g>
					<g>
						<path style="fill:#1A4E72;" d="M338.045,250.118c1.62,0.202,8.842,1.21,9.394-1.32c0.761-3.475-5.285-4.311-6.9-4.795        c-9.185-2.76-18.286-4.339-27.428-5.933c-9.545-1.661-18.658-3.451-28.827-4.186c-2.155-0.154-5.026-0.432-7.491-0.341        c-0.331,2.419-0.665,4.939-0.95,7.483c4.927,0.835,10.004,1.315,15.025,1.925        C307.166,244.957,321.463,248.015,338.045,250.118z"/>
					</g>
				</g>
			</g>
		</g>
		<g>
			<g>
				<g>
					<path style="fill-rule:evenodd;clip-rule:evenodd;fill:#E24E6A;" d="M304.509,88.235c3.034-1.032,8.818-0.362,12.475,0.187       c18.956,2.868,13.86,5.43,31.954,10.679c1.71,0.496,24.028,1.551,26.502,2.336c4.634,1.471,9.521,3.616,10.585,7.067       c0.936,3.036-0.499,8.297-1.178,10.731c-0.622,2.237-2.061,7.169-4.092,8.417c-2.705,1.663-7.555,0.756-11.141-0.074       c-10.608-2.465-19.95-4.807-30.947-6.6c-11.129-1.815-20.667-3.015-31.192-6.307c-3.542-1.109-7.284-2.402-8.53-5.139       c-0.787-1.74-0.384-3.771-0.146-6.075C299.454,97.046,299.26,90.028,304.509,88.235z"/>
				</g>
				<g>
					<path style="fill:#FF8C9C;" d="M314.056,90.607c0.082,1.963,3.617,3.555,5.789,4.392c2.887,1.109,5.53,1.678,7.683,2.314       c10.524,3.125,20.302,5.53,32.084,7.265c2.467,0.37,16.001,3.358,16.577-1.063c0.101-0.768-0.163-1.438-0.631-2.035       c-2.513-0.799-4.966-1.409-6.703-1.915c-18.094-5.249-32.915-8.273-51.871-11.141c-0.362-0.05-0.758-0.108-1.157-0.161       C314.729,88.653,313.989,89.145,314.056,90.607z"/>
				</g>
			</g>
			<g>
				<g>
					<g>
						<path style="fill-rule:evenodd;clip-rule:evenodd;fill:#FFFFFF;" d="M323.28,272.65c2.227-1.368,6.636-1.382,10.964-1.138        c1.86,0.11,4.855,0.331,4.944,2.002c0.115,2.002-3.329,2.29-4.558,2.391c-3.905,0.317-8.686-0.101-11.16-1.066        C323.047,274.392,322.987,273.298,323.28,272.65z"/>
					</g>
					<g>
						<path style="fill-rule:evenodd;clip-rule:evenodd;fill:#FFFFFF;" d="M339.152,268.267c-1.034-4.08,8.158-4.8,8.045-1.296        c-0.057,1.512-4.37,3.514-6.576,2.943C339.831,269.702,339.329,268.982,339.152,268.267z"/>
					</g>
					<g>
						<path style="fill-rule:evenodd;clip-rule:evenodd;fill:#FFFFFF;" d="M348.978,274.157c-0.96-1.152,0.046-3.072,1.685-4.493        c1.315-1.138,4.358-2.722,5.126-0.878c0.338,0.821-0.259,2.472-1.591,3.682C352.64,273.893,350.207,275.64,348.978,274.157z"/>
					</g>
				</g>
				<g>
					<g>
						<path style="fill-rule:evenodd;clip-rule:evenodd;fill:#FFFFFF;" d="M310.296,142.264c0.324,2.354-8.633,2.208-8.955,0.478        C300.822,139.943,310.267,140.204,310.296,142.264z"/>
					</g>
					<g>
						<path style="fill-rule:evenodd;clip-rule:evenodd;fill:#FFFFFF;" d="M313.701,141.884c1.21-0.931,5.199-0.233,8.232,0.132        c12.07,1.462,23.607,3.876,34.734,7.234c1.824,0.55,3.934,1.203,6.344,2.208c1.75,0.725,5.064,1.853,4.687,3.975        c-0.444,2.477-5.002,1.08-6.548,0.732c-11.866-2.647-22.417-5.784-34.645-8.825c-1.827-0.466-4.287-0.888-7.076-1.601        C317.042,145.137,311.901,144.272,313.701,141.884z"/>
					</g>
				</g>
				<g>
					<g>
						<path style="fill-rule:evenodd;clip-rule:evenodd;fill:#FFFFFF;" d="M316.785,96.403c1.308-1.98-6.831-5.727-7.87-4.303        C307.235,94.394,315.861,98.248,316.785,96.403z"/>
					</g>
					<g>
						<path style="fill-rule:evenodd;clip-rule:evenodd;fill:#FFFFFF;" d="M319.687,98.217c0.684,1.361,4.591,2.462,7.479,3.439        c11.513,3.903,22.964,6.723,34.448,8.506c1.887,0.293,4.068,0.622,6.67,0.758c1.894,0.094,5.374,0.509,5.942-1.562        c0.677-2.426-4.035-3.137-5.575-3.492c-11.844-2.746-22.719-4.476-35.06-7.023c-1.846-0.384-4.251-1.058-7.068-1.627        C324.108,96.734,319.099,95.287,319.687,98.217z"/>
					</g>
				</g>
			</g>
		</g>
	</g>
</g>















</svg>
