<?xml version="1.0" encoding="utf-8"?>
<!-- Generator: Adobe Illustrator 25.2.1, SVG Export Plug-In . SVG Version: 6.00 Build 0)  -->
<svg version="1.1" id="图层_1" xmlns="http://www.w3.org/2000/svg" xmlns:xlink="http://www.w3.org/1999/xlink" x="0px" y="0px"
	 viewBox="0 0 95 129" style="enable-background:new 0 0 95 129;" xml:space="preserve">
<style type="text/css">
	.st0{fill-rule:evenodd;clip-rule:evenodd;fill:#91B822;}
	.st1{fill:#FFE76F;}
</style>
<desc>Created with Pixso.</desc>
<g>
	<path class="st0" d="M5.2-5h85.4c2.8,0,5.1,2.3,5.1,5.1v128.8c0,2.8-2.3,5.1-5.1,5.1H5.2c-2.8,0-5.1-2.3-5.1-5.1V0.1
		C0.1-2.7,2.3-5,5.2-5z"/>
	<path class="st1" d="M11.7,18l4.3-1l0.4-2.6l-4.3,1L11.7,18z M34.4,15.3L35,16l-1.9,5.4h4.4l0.6-1.7h3.1l-0.4,2.6h-6.5l-0.4,2.6
		h6.5l-0.4,3h-7.8l-0.4,2.6H51l0.4-2.6h-7l0.4-3h5.7l0.4-2.6h-5.7l0.4-2.6h6.1L52,17h-6.1l0.4-2.6h-5.2l0.8,0.9L41.6,17H39l0.6-1.7
		H34.4z M57.9,17.9h-0.9l0.5-2.2h-3.3l0.5,0.6l-1.4,5.9H56l0.5-2.2h0.7l-0.6,4.4L53,24.9L52.7,27l3.5-0.4l-0.6,4.3h3.5l0.6-4.6
		l0.9-0.1L61,24l-0.9,0.1l0.6-4h0.4l0.3-2.2H61l0.5-3.5h-3.1L57.9,17.9z M73.4,16.6H66l0.7-2.2h-3.9l0.5,0.5l-1.7,5.1h1.5l-3,10.5
		h2.6L66,18.7h0.6l-3.3,11.8H66l3.3-11.8h0.3l-1.5,10.9l-1,0.9h2.8c0.4,0,0.8-0.1,1.1-0.2c0.3-0.2,0.5-0.5,0.6-0.9L73.4,16.6z
		 M27.9,16.4l0.6-2h-2.8l-1.8,6.7h2.7l0.8-2.8h0.5l-0.4,3.1l-0.6,1.3l-0.3-0.9h-2.7l1.3,4.2l-2.4,4.9h2.5l0.9-1.8l0.6,1.8h2.7
		l-1.7-5.2l1.9-3.9l0.5-3.6h0.6l0.3-1.9H27.9z M19,18.2h-0.4l0.4-2.6h-2.1l-0.6,4.4h7.3l0.6-4.4H22l-0.4,2.6h-0.4l0.5-3.8H19
		l0.4,0.6L19,18.2z M14.1,30.9l1.5-10.4l0.4-2.6l-4.3,1l-0.4,2.6l0.7-0.2l-1.3,9.5H14.1z M23,22.7l0.3-2h-7l-0.3,2H23z M19.8,25.2
		L19,30.7h3.4l0.4-2.7l-0.8,0.6l0.7-5.3h-6.9l-1,7.4h2.8l0.8-5.5H19.8z M29.6,48l0.7-1.7h-4.4L25.2,48h-1.3l-0.2-1.7h-4.4l0.2,1.7
		h-1.3l-0.2-1.7h-4.4l0.2,1.7h-1.3l-0.4,3.1H17l0.1-0.9h8.7l-0.1,0.9h4.8l0.4-3.1H29.6z M48.6,52.5l0.2,0.8H52l-1.8-7h-7.2l0.7,0.8
		l-3.3,6.2h3.1l0.4-0.8l-0.2,1.1h4.6L48.6,52.5z M33.5,51.3h2l-1.6,11.5H37l1.6-11.5h1.9l0.3-2.2h-1.9l0.4-2.8h-3.7l0.5,0.7
		l-0.3,2.1h-2L33.5,51.3z M68.7,48.3l0.6,3.1H66l-0.4,2.1h3.6l0.2-1.6l0.3,1.3H73l-1.7-6.8h-7.1l0.7,0.8l-3.2,6h3.4l2.5-4.9H68.7z
		 M55.5,49.7l-1.8,5.9h4.2l-0.7,5h-1.6L54,62.8h4.4c0.4,0,0.8-0.1,1.2-0.4c0.3-0.3,0.5-0.6,0.6-1.1l1.1-7.8h-0.9l1.4-4.5l0.3-2.2h-7
		l-0.3,2.2H59l-1.4,4.5h-0.8l1.1-3.7H55.5z M48.4,51.6h-3.9l1.7-3.3h1.5L48.4,51.6z M18.5,55.4l-0.1,0.9H11l-0.3,2.2h7.4l-0.3,2.2
		l-2,2.1h4.5c0.4,0,0.8-0.1,1.2-0.4c0.3-0.3,0.5-0.6,0.6-1.1l0.4-2.8h7.4l0.3-2.2h-7.4l5.9-2l0.4-2.6H13.8l-0.3,2.2h10.1L18.5,55.4z
		 M33.6,52l-1.8,10h1.4l1.8-10H33.6z M38.8,52l-0.9,8.7h1.5l0.8-8.7H38.8z M49.5,60.3l2-6h-2.6l-2,6h-7.3l-0.3,2.1h11.5l0.3-2.1
		H49.5z M43.5,59.8l0-5.5h-2.6l0,5.5H43.5z M46.7,59.7l0.3-5.4h-2.6l-0.3,5.4H46.7z M70.9,60.3l2-5.8H70l-2,5.8h-7.2l-0.3,2.1h11.4
		l0.3-2.1H70.9z M64.7,59.8l0-5.4h-2.8l0,5.4H64.7z M68,59.8l0.3-5.3h-2.8l-0.3,5.3H68z M56.8,58.9l0.3-2.3l-3.7,0.5l-0.3,2.3
		L56.8,58.9z"/>
</g>
</svg>
