<?xml version="1.0" encoding="utf-8"?>
<!-- Generator: Adobe Illustrator 25.2.1, SVG Export Plug-In . SVG Version: 6.00 Build 0)  -->
<svg version="1.1" id="图层_1" xmlns="http://www.w3.org/2000/svg" xmlns:xlink="http://www.w3.org/1999/xlink" x="0px" y="0px"
	 viewBox="0 0 95 129" style="enable-background:new 0 0 95 129;" xml:space="preserve">
<style type="text/css">
	.st0{fill-rule:evenodd;clip-rule:evenodd;fill:#D7000F;}
	.st1{fill:#F1F2E5;}
</style>
<desc>Created with Pixso.</desc>
<g>
	<path class="st0" d="M5.5-6h86.1c2.8,0,5.1,2.3,5.1,5.1v129.7c0,2.8-2.3,5.1-5.1,5.1H5.5c-2.8,0-5.1-2.3-5.1-5.1V-0.9
		C0.4-3.7,2.7-6,5.5-6z"/>
	<path class="st1" d="M42.6,14.4l-0.1,0.4h-8.3l0.7,0.8L32,30.2h4L38.6,17h14.2l0.3-2.2h-6.2l0.2-1.3h-5.3L42.6,14.4z M16.4,13.5
		l0.6,0.6l-2.3,16H18l2.4-16.6H16.4z M56.6,15.5L55,27.3h-1l-0.3,2.4H73l0.3-2.4h-1L74,15.5h-7.7l1.2-2h-5.7l0.8,0.9l-0.7,1.1H56.6z
		 M25.2,14.9l0.5-1.3H22l-2.3,6.3h3.5l1.1-2.8h6.9l0.3-2.2C31.5,14.9,25.2,14.9,25.2,14.9z M12.3,15.1l0.6,0.6L11,29.3h3.2l2-14.2
		C16.2,15.1,12.3,15.1,12.3,15.1z M59.8,27.3h-1l1.4-9.6h1L59.8,27.3z M64.1,27.3h-1l1.3-9.6h1L64.1,27.3z M67.5,27.3l1.3-9.6h1
		l-1.4,9.6H67.5z M43,21.8l-1.2,8.3h4.4l1.2-8.3h4.1l0.3-2.2h-4.1l0.3-1.9h-4.4l-0.3,1.9h-4.5l-0.3,2.2H43z M29.2,20.3l-0.5-2.5H25
		l0.5,2.5H29.2z M29.9,29.8l1.2-8.8H20l-1.2,8.8H29.9z M47.9,22.5l0.4,7.2h3.1l-0.5-7.2H47.9z M39.4,22.6l-2.7,7.2h3.1l2.6-7.2
		C42.4,22.6,39.4,22.6,39.4,22.6z M23.9,22.9l-0.7,4.8h-0.9l0.7-4.8C23,22.9,23.9,22.9,23.9,22.9z M25.9,27.8l0.7-4.8h0.9l-0.7,4.8
		H25.9z M51.4,47.4l0.7-1.8h-4.4L47,47.4h-1.3l-0.2-1.8h-4.4l0.2,1.8H40l-0.2-1.8h-4.4l0.2,1.8h-1.3l-0.4,3.1h4.8l0.1-0.9h8.8
		l-0.1,0.9h4.8l0.4-3.1H51.4z M70.5,51.9l0.2,0.8H74l-1.8-7.1H65l0.7,0.9l-3.3,6.3h3.2L66,52l-0.2,1.1h4.6L70.5,51.9z M23,46.5V47
		h-5l-0.3,2.1h13.9L32,47h-4.7l0.2-1.3h-5L23,46.5z M55.3,50.7h2l-1.6,11.6h3.1l1.6-11.6h1.9l0.3-2.2h-1.9l0.4-2.8h-3.7l0.5,0.7
		l-0.3,2.1h-2L55.3,50.7z M13.2,46.1l0.3,4H17l-0.3-4H13.2z M70.4,51h-3.9l1.7-3.4h1.6L70.4,51z M17.2,53.9l0.8-0.4l-1.2,8.8h3.3
		l1.8-12.9l-4.3,1.8L17.2,53.9z M24.2,55l0.1-0.9h-2.7l-0.2,1.8l2.4,3.2l-3.2,3.2H24l1.2-1.3l1,1.3h3.4L27,59l3.1-3.3l0.7-4.9H26
		l0.7-1.1h-3l-2.3,3.8h2.8l0.2-0.2l0.3,2.3H27l-1.4,1.5L24.2,55z M12.7,50.9l0.2,4h3.6l-0.3-4H12.7z M40.3,54.9l-0.1,0.9h-7.5
		L32.4,58h7.5l-0.3,2.2l-2,2.1H42c0.4,0,0.8-0.1,1.2-0.4c0.3-0.3,0.5-0.7,0.6-1.1l0.4-2.8h7.5l0.3-2.2h-7.5l6-2l0.4-2.6H35.5
		l-0.3,2.2h10.2L40.3,54.9z M55.5,51.4l-1.8,10h1.5l1.8-10H55.5z M60.6,51.4l-0.9,8.7h1.5l0.8-8.7H60.6z M27.5,55.3l-0.3,0.3
		L26.7,53h-2l0.4-0.5h2.7L27.5,55.3z M71.4,59.8l2.1-6h-2.7l-2,6h-7.3L61.2,62h11.6l0.3-2.2H71.4z M65.4,59.2v-5.5h-2.7v5.5H65.4z
		 M68.6,59.2l0.3-5.5h-2.7L66,59.2H68.6z M13,55.7l-2.3,6.5h3.6l2.3-6.5H13z M26.9,79.8l0.6,3.1h-3.3L23.8,85h3.6l0.2-1.6l0.3,1.3
		h3.4l-1.7-6.9h-7.2l0.7,0.9l-3.3,6.1h3.4l2.5-4.9L26.9,79.8L26.9,79.8z M13.6,81.2l-1.8,5.9H16l-0.7,5h-1.6l-1.5,2.2h4.5
		c0.4,0,0.8-0.1,1.2-0.4c0.3-0.3,0.5-0.7,0.6-1.1l1.1-7.9h-0.9l1.4-4.6l0.3-2.2h-7l-0.3,2.2h4.2l-1.5,4.6H15l1.1-3.7H13.6z
		 M29.1,91.8l2-5.9h-2.9l-2,5.9H19L18.7,94h11.5l0.3-2.2H29.1z M22.9,91.4V86H20v5.4H22.9z M26.3,91.4l0.3-5.4h-2.9l-0.3,5.4H26.3z
		 M15,90.5l0.3-2.3l-3.8,0.5L11.2,91L15,90.5z"/>
</g>
</svg>
